#N canvas 564 190 508 345 16;
#N canvas 326 463 450 300 new 0;
#X msg 10 10 bang;
#X floatatom 161 52 7 50 5000 0 - - -;
#X obj 10 70 random 127;
#X floatatom 10 100 5 0 0 0 - - -;
#X text 10 130 That's it !;
#X obj 10 39 metro 500;
#N canvas 573 450 450 300 another 0;
#X msg 127 51 bang;
#X restore 234 171 pd another;
#X connect 0 0 5 0;
#X connect 1 0 5 1;
#X connect 2 0 3 0;
#X connect 5 0 2 0;
#X restore 44 25 pd new;
#X obj 88 162 s pd-new;
#X obj 98 73 tgl 15 0 empty empty empty 17 7 0 10 -262144 -1 -1 0 1
;
#X msg 95 100 vis \$1 \;;
#X msg 205 85 mouse 0 0 1 0 \;;
#X msg 199 120 motion 100 100 0 \;;
#X msg 202 150 mouseup 100 100 1 0 \;;
#X msg 209 192 cut;
#X connect 2 0 3 0;
#X connect 3 0 1 0;
#X connect 4 0 1 0;
#X connect 5 0 1 0;
#X connect 6 0 1 0;
#X connect 7 0 1 0;
